<?xml version="1.0" standalone="no"?>
<!DOCTYPE svg PUBLIC "-//W3C//DTD SVG 20010904//EN"
 "http://www.w3.org/TR/2001/REC-SVG-20010904/DTD/svg10.dtd">
<svg version="1.0" xmlns="http://www.w3.org/2000/svg"
 width="594.000000pt" height="594.000000pt" viewBox="0 0 594.000000 594.000000"
 preserveAspectRatio="xMidYMid meet">
<metadata>
Created by potrace 1.14, written by Peter Selinger 2001-2017
</metadata>
<g transform="translate(0.000000,594.000000) scale(0.100000,-0.100000)"
fill="#000000" stroke="none">
<path d="M1865 3670 c-93 -60 -174 -113 -180 -117 -5 -5 -17 -12 -25 -16 -22
-11 -46 -26 -150 -94 l-95 -62 0 -418 c1 -230 4 -423 8 -429 5 -9 148 -99 282
-177 11 -7 39 -24 63 -39 24 -16 45 -28 46 -28 2 0 51 -29 110 -65 58 -36 111
-65 117 -65 6 0 145 81 311 179 165 99 305 182 311 184 7 2 11 130 11 432 0
365 -2 430 -14 437 -8 5 -148 93 -310 195 -162 102 -299 187 -305 189 -5 2
-86 -46 -180 -106z m221 -706 c0 -661 0 -682 -19 -694 -15 -9 -26 -9 -48 0
l-29 12 0 682 0 681 27 17 c25 15 29 15 48 0 l21 -16 0 -682z m261 522 c259
-161 243 -147 242 -212 -1 -30 -4 -54 -7 -54 -3 0 -35 17 -71 37 -36 20 -95
53 -131 72 -36 20 -97 53 -136 75 l-71 38 0 74 c-1 41 1 74 3 74 2 0 79 -47
171 -104z m-442 19 l0 -69 -45 -26 c-25 -15 -83 -47 -130 -72 -142 -76 -185
-100 -194 -109 -24 -22 -33 -7 -32 49 l0 57 61 39 c33 21 86 55 118 75 31 20
90 57 130 83 39 26 77 46 82 44 6 -1 10 -34 10 -71z m0 -312 c-1 -95 -5 -137
-12 -136 -6 1 -34 -4 -62 -13 l-51 -15 -48 40 c-26 22 -68 51 -94 64 -55 29
-57 26 62 90 47 24 110 59 140 76 30 17 57 31 60 31 3 0 5 -62 5 -137z m317
113 c24 -13 94 -51 157 -86 l113 -63 -49 -24 c-28 -13 -72 -43 -99 -67 -36
-33 -53 -42 -65 -36 -9 5 -28 11 -43 14 -68 12 -65 4 -63 151 0 74 2 135 3
135 2 0 23 -11 46 -24z m-629 -250 c36 -19 74 -43 85 -54 20 -20 20 -20 -16
-45 -20 -13 -65 -52 -98 -86 l-62 -62 1 140 c0 105 3 141 12 141 7 0 42 -15
78 -34z m995 -116 l0 -148 -62 65 c-33 37 -77 78 -98 93 -20 15 -33 31 -30 37
14 20 94 72 123 78 16 4 29 10 29 14 0 4 9 7 19 8 18 2 19 -7 19 -147z m-684
-287 c-1 -164 -2 -301 -3 -305 -2 -12 -396 232 -397 245 -2 38 96 191 160 251
72 66 207 134 231 115 7 -5 10 -115 9 -306z m386 284 c76 -35 161 -110 219
-195 40 -59 80 -142 75 -155 -4 -10 -374 -234 -403 -245 -4 -1 -8 139 -9 312
l0 316 36 -6 c20 -3 57 -15 82 -27z"/>
<path d="M3700 3195 c-23 -50 -51 -112 -63 -139 -11 -27 -23 -44 -25 -38 -2 7
-23 12 -46 12 l-42 0 0 118 c1 113 0 117 -21 120 -21 3 -22 1 -25 -134 -3
-121 -1 -137 14 -143 14 -5 73 -6 148 -2 9 1 21 16 28 34 12 33 12 33 74 32
53 -1 63 -4 67 -20 4 -24 21 -40 49 -47 27 -7 27 -8 -2 55 -13 29 -38 82 -55
120 -17 37 -31 71 -31 75 0 5 -6 17 -14 27 -13 18 -17 12 -56 -70z m65 -51 c8
-20 15 -38 15 -39 0 -8 -62 -10 -66 -3 -6 9 23 78 31 78 3 0 12 -16 20 -36z"/>
<path d="M2899 3253 c-3 -87 -3 -263 1 -264 7 -2 60 -2 91 0 61 3 96 77 58
125 -15 19 -18 34 -13 65 5 34 3 43 -19 65 -20 20 -36 26 -72 26 -36 0 -45 -4
-46 -17z m95 -45 c14 -23 -3 -52 -33 -56 -20 -3 -22 0 -19 38 2 34 5 40 21 38
11 -2 25 -11 31 -20z m20 -120 c16 -26 -4 -52 -43 -56 -30 -3 -31 -2 -31 38 0
40 1 41 31 38 18 -2 37 -11 43 -20z"/>
<path d="M3109 3263 c-4 -27 -4 -273 1 -274 3 0 36 -2 73 -2 54 -2 71 1 78 14
12 24 2 29 -58 29 l-53 0 0 44 0 45 53 3 c44 3 52 6 52 23 0 17 -6 19 -52 18
l-53 -3 0 35 0 35 53 0 c58 0 68 4 60 26 -4 10 -25 14 -79 14 -41 0 -75 -3
-75 -7z"/>
<path d="M3309 3263 c-1 -5 -2 -68 -3 -140 -1 -112 1 -133 14 -134 54 -5 106
-3 112 5 14 20 -5 36 -43 36 l-39 0 0 120 c0 113 -1 120 -20 120 -11 0 -21 -3
-21 -7z"/>
<path d="M3670 2971 c0 -5 -28 -68 -62 -141 -51 -108 -64 -129 -73 -115 -5 9
-20 29 -32 43 -29 34 -28 36 2 66 17 17 25 36 25 58 -1 58 -34 81 -118 83
l-43 1 3 -140 c3 -133 4 -141 23 -141 18 0 20 7 20 53 -1 28 3 52 7 52 4 0 21
-21 39 -47 18 -27 34 -50 36 -53 3 -3 24 -5 47 -6 40 -1 45 1 60 32 15 33 18
34 74 34 57 0 59 -1 75 -34 11 -25 22 -34 37 -33 12 1 19 6 16 14 -3 7 -1 13
4 13 6 0 10 -7 10 -15 0 -21 27 -19 37 3 5 9 8 52 7 95 -1 42 -1 77 1 77 1 0
31 -35 66 -77 98 -119 91 -114 158 -109 66 4 111 26 134 66 37 61 15 159 -43
194 -17 9 -57 19 -89 21 -71 6 -70 8 -69 -118 0 -48 -1 -90 -4 -92 -2 -3 -36
35 -75 83 -70 86 -119 142 -125 142 -2 0 -2 -58 -1 -130 1 -71 -3 -130 -7
-130 -9 0 -49 82 -101 202 -21 52 -39 73 -39 49z m-193 -63 c19 -15 10 -49
-17 -63 -15 -8 -30 -10 -36 -7 -8 6 -11 54 -5 84 1 8 42 -2 58 -14z m684 -3
c20 -13 40 -76 34 -105 -3 -15 -16 -37 -28 -48 -25 -23 -84 -35 -94 -19 -3 5
-7 50 -7 98 -1 71 2 89 14 92 16 3 62 -7 81 -18z m-459 -72 l16 -38 -35 -3
c-42 -4 -48 0 -34 25 5 10 12 26 15 36 8 27 20 20 38 -20z"/>
<path d="M4374 2964 c-4 -10 -33 -74 -65 -142 -33 -68 -59 -127 -59 -132 0 -5
10 -8 21 -7 13 1 27 14 37 34 9 18 19 33 24 34 4 0 28 1 53 1 25 0 49 -1 54
-1 5 -1 14 -14 20 -31 5 -16 14 -30 18 -31 4 0 16 -2 26 -4 23 -4 21 0 -49
157 -62 137 -70 150 -80 122z m30 -116 c23 -45 20 -55 -14 -53 -36 2 -45 9
-34 27 5 7 9 15 10 18 2 11 16 40 19 40 2 0 11 -14 19 -32z"/>
<path d="M2925 2960 c-6 -10 104 -290 115 -290 3 0 12 17 19 38 8 20 22 55 32
77 33 73 69 164 69 174 0 5 -8 8 -17 6 -10 -2 -21 -4 -25 -4 -3 -1 -12 -18
-19 -38 -6 -20 -23 -62 -36 -92 l-24 -55 -38 95 c-36 89 -59 116 -76 89z"/>
<path d="M3176 2835 c1 -71 2 -135 3 -142 1 -7 26 -11 76 -10 70 0 75 2 75 22
0 20 -5 22 -52 21 l-53 -1 -3 47 -3 47 44 -3 c52 -4 72 5 63 29 -4 12 -16 16
-43 15 -61 -3 -63 -2 -63 33 l0 33 55 -2 c51 -1 55 0 55 21 0 22 -3 23 -78 22
l-77 -1 1 -131z"/>
</g>
</svg>
